<mxfile host="app.diagrams.net" modified="2023-08-10T17:24:27.985Z" agent="Mozilla/5.0 (Macintosh; Intel Mac OS X 10_15_7) AppleWebKit/537.36 (KHTML, like Gecko) Chrome/115.0.0.0 Safari/537.36" etag="DP2G2Arw7yxYhiWzOYUD" version="21.6.8" type="github">
  <diagram name="Page-1" id="c37626ed-c26b-45fb-9056-f9ebc6bb27b6">
    <mxGraphModel dx="2690" dy="1825" grid="1" gridSize="11" guides="1" tooltips="1" connect="1" arrows="1" fold="1" page="1" pageScale="1" pageWidth="1100" pageHeight="850" background="none" math="0" shadow="0">
      <root>
        <mxCell id="0" />
        <mxCell id="1" parent="0" />
        <mxCell id="O2C8uv8vaIljnyK9QpL5-1" value="&lt;font style=&quot;font-size: 17px;&quot;&gt;Вхід користувача&lt;/font&gt;" style="ellipse;whiteSpace=wrap;html=1;" vertex="1" parent="1">
          <mxGeometry x="-580" y="200" width="290" height="130" as="geometry" />
        </mxCell>
        <mxCell id="O2C8uv8vaIljnyK9QpL5-2" value="&lt;font style=&quot;font-size: 21px;&quot;&gt;Замовлення авторського килиму&lt;/font&gt;" style="ellipse;whiteSpace=wrap;html=1;" vertex="1" parent="1">
          <mxGeometry x="176" y="1474" width="290" height="176" as="geometry" />
        </mxCell>
        <mxCell id="O2C8uv8vaIljnyK9QpL5-3" value="" style="shape=flexArrow;endArrow=classic;html=1;rounded=0;exitX=1;exitY=1;exitDx=0;exitDy=0;entryX=0;entryY=0;entryDx=0;entryDy=0;" edge="1" parent="1" source="O2C8uv8vaIljnyK9QpL5-1" target="O2C8uv8vaIljnyK9QpL5-2">
          <mxGeometry width="50" height="50" relative="1" as="geometry">
            <mxPoint x="-340" y="440" as="sourcePoint" />
            <mxPoint x="-188" y="490" as="targetPoint" />
          </mxGeometry>
        </mxCell>
        <mxCell id="O2C8uv8vaIljnyK9QpL5-4" value="&lt;font style=&quot;font-size: 20px;&quot;&gt;Навчання&lt;/font&gt;" style="ellipse;whiteSpace=wrap;html=1;" vertex="1" parent="1">
          <mxGeometry x="627" y="165" width="278" height="187" as="geometry" />
        </mxCell>
        <mxCell id="O2C8uv8vaIljnyK9QpL5-5" value="&lt;font style=&quot;font-size: 16px;&quot;&gt;Бот вітає користувача&lt;/font&gt;" style="rounded=0;whiteSpace=wrap;html=1;" vertex="1" parent="1">
          <mxGeometry x="-561" y="440" width="242" height="132" as="geometry" />
        </mxCell>
        <mxCell id="O2C8uv8vaIljnyK9QpL5-6" value="" style="shape=flexArrow;endArrow=classic;html=1;rounded=0;entryX=0.5;entryY=0;entryDx=0;entryDy=0;" edge="1" parent="1" target="O2C8uv8vaIljnyK9QpL5-5">
          <mxGeometry width="50" height="50" relative="1" as="geometry">
            <mxPoint x="-440" y="330" as="sourcePoint" />
            <mxPoint x="-390" y="280" as="targetPoint" />
          </mxGeometry>
        </mxCell>
        <mxCell id="O2C8uv8vaIljnyK9QpL5-7" value="" style="shape=flexArrow;endArrow=classic;html=1;rounded=0;entryX=0;entryY=0.5;entryDx=0;entryDy=0;" edge="1" parent="1" target="O2C8uv8vaIljnyK9QpL5-4">
          <mxGeometry width="50" height="50" relative="1" as="geometry">
            <mxPoint x="-290" y="270" as="sourcePoint" />
            <mxPoint x="-240" y="220" as="targetPoint" />
          </mxGeometry>
        </mxCell>
        <mxCell id="O2C8uv8vaIljnyK9QpL5-8" value="&lt;font style=&quot;font-size: 17px;&quot;&gt;Зворотній&lt;/font&gt; &lt;font style=&quot;font-size: 17px;&quot;&gt;звязок&lt;/font&gt;" style="ellipse;whiteSpace=wrap;html=1;" vertex="1" parent="1">
          <mxGeometry x="-110" y="-286" width="242" height="99" as="geometry" />
        </mxCell>
        <mxCell id="O2C8uv8vaIljnyK9QpL5-9" value="" style="shape=flexArrow;endArrow=classic;html=1;rounded=0;entryX=0;entryY=1;entryDx=0;entryDy=0;" edge="1" parent="1" target="O2C8uv8vaIljnyK9QpL5-8">
          <mxGeometry width="50" height="50" relative="1" as="geometry">
            <mxPoint x="-429" y="200" as="sourcePoint" />
            <mxPoint x="-379" y="150" as="targetPoint" />
          </mxGeometry>
        </mxCell>
        <mxCell id="O2C8uv8vaIljnyK9QpL5-12" value="Бот виводить контактні данні:&lt;br&gt;1. посилання на Instagram&lt;br&gt;2. Посилання на Tik-Tok&lt;br&gt;3. Телефон магазину&lt;br&gt;4.&amp;nbsp;" style="rounded=0;whiteSpace=wrap;html=1;fontSize=17;" vertex="1" parent="1">
          <mxGeometry x="-93.5" y="-99" width="302.5" height="132" as="geometry" />
        </mxCell>
        <mxCell id="O2C8uv8vaIljnyK9QpL5-13" value="" style="shape=flexArrow;endArrow=classic;html=1;rounded=0;entryX=0.5;entryY=0;entryDx=0;entryDy=0;exitX=0.5;exitY=1;exitDx=0;exitDy=0;" edge="1" parent="1" source="O2C8uv8vaIljnyK9QpL5-8" target="O2C8uv8vaIljnyK9QpL5-12">
          <mxGeometry width="50" height="50" relative="1" as="geometry">
            <mxPoint x="-6" y="-181" as="sourcePoint" />
            <mxPoint x="44" y="-231" as="targetPoint" />
          </mxGeometry>
        </mxCell>
        <mxCell id="O2C8uv8vaIljnyK9QpL5-15" value="&lt;font style=&quot;font-size: 20px;&quot;&gt;Обладнання&lt;/font&gt;" style="ellipse;whiteSpace=wrap;html=1;" vertex="1" parent="1">
          <mxGeometry x="561" y="726" width="352" height="209" as="geometry" />
        </mxCell>
        <mxCell id="O2C8uv8vaIljnyK9QpL5-16" value="" style="shape=flexArrow;endArrow=classic;html=1;rounded=0;exitX=0.946;exitY=0.735;exitDx=0;exitDy=0;exitPerimeter=0;entryX=0;entryY=0.5;entryDx=0;entryDy=0;" edge="1" parent="1" source="O2C8uv8vaIljnyK9QpL5-1" target="O2C8uv8vaIljnyK9QpL5-15">
          <mxGeometry width="50" height="50" relative="1" as="geometry">
            <mxPoint x="-187" y="358" as="sourcePoint" />
            <mxPoint x="-137" y="308" as="targetPoint" />
          </mxGeometry>
        </mxCell>
        <mxCell id="O2C8uv8vaIljnyK9QpL5-17" value="&lt;font style=&quot;font-size: 20px;&quot;&gt;Користувач обирає онлайн навчання&lt;/font&gt;" style="shape=step;perimeter=stepPerimeter;whiteSpace=wrap;html=1;fixedSize=1;" vertex="1" parent="1">
          <mxGeometry x="1144" y="-198" width="319" height="143" as="geometry" />
        </mxCell>
        <mxCell id="O2C8uv8vaIljnyK9QpL5-18" value="" style="shape=flexArrow;endArrow=classic;html=1;rounded=0;exitX=0.5;exitY=0;exitDx=0;exitDy=0;entryX=0;entryY=0.5;entryDx=0;entryDy=0;" edge="1" parent="1" source="O2C8uv8vaIljnyK9QpL5-4" target="O2C8uv8vaIljnyK9QpL5-17">
          <mxGeometry width="50" height="50" relative="1" as="geometry">
            <mxPoint x="781" y="138" as="sourcePoint" />
            <mxPoint x="831" y="88" as="targetPoint" />
          </mxGeometry>
        </mxCell>
        <mxCell id="O2C8uv8vaIljnyK9QpL5-19" value="&lt;span style=&quot;font-size: 20px;&quot;&gt;Корситувач обирає офлайн навчання&lt;/span&gt;" style="shape=step;perimeter=stepPerimeter;whiteSpace=wrap;html=1;fixedSize=1;" vertex="1" parent="1">
          <mxGeometry x="1518" y="193.5" width="319" height="143" as="geometry" />
        </mxCell>
        <mxCell id="O2C8uv8vaIljnyK9QpL5-20" value="" style="shape=flexArrow;endArrow=classic;html=1;rounded=0;entryX=0;entryY=0.5;entryDx=0;entryDy=0;exitX=1;exitY=0.5;exitDx=0;exitDy=0;" edge="1" parent="1" source="O2C8uv8vaIljnyK9QpL5-4" target="O2C8uv8vaIljnyK9QpL5-19">
          <mxGeometry width="50" height="50" relative="1" as="geometry">
            <mxPoint x="957" y="283.5" as="sourcePoint" />
            <mxPoint x="1007" y="233.5" as="targetPoint" />
          </mxGeometry>
        </mxCell>
        <mxCell id="O2C8uv8vaIljnyK9QpL5-21" value="&lt;font style=&quot;font-size: 29px;&quot;&gt;Готовий килим&lt;/font&gt;" style="shape=step;perimeter=stepPerimeter;whiteSpace=wrap;html=1;fixedSize=1;" vertex="1" parent="1">
          <mxGeometry x="605" y="1100" width="370" height="143" as="geometry" />
        </mxCell>
        <mxCell id="O2C8uv8vaIljnyK9QpL5-22" value="" style="shape=flexArrow;endArrow=classic;html=1;rounded=0;entryX=0;entryY=0.5;entryDx=0;entryDy=0;" edge="1" parent="1" target="O2C8uv8vaIljnyK9QpL5-21">
          <mxGeometry width="50" height="50" relative="1" as="geometry">
            <mxPoint x="341" y="1474" as="sourcePoint" />
            <mxPoint x="391" y="1424" as="targetPoint" />
          </mxGeometry>
        </mxCell>
        <mxCell id="O2C8uv8vaIljnyK9QpL5-23" value="&lt;font style=&quot;font-size: 20px;&quot;&gt;Килим власного дизайну&lt;/font&gt;" style="shape=step;perimeter=stepPerimeter;whiteSpace=wrap;html=1;fixedSize=1;" vertex="1" parent="1">
          <mxGeometry x="586.5" y="1793" width="407" height="165" as="geometry" />
        </mxCell>
        <mxCell id="O2C8uv8vaIljnyK9QpL5-24" value="" style="shape=flexArrow;endArrow=classic;html=1;rounded=0;entryX=0;entryY=0.5;entryDx=0;entryDy=0;exitX=1;exitY=1;exitDx=0;exitDy=0;" edge="1" parent="1" source="O2C8uv8vaIljnyK9QpL5-2" target="O2C8uv8vaIljnyK9QpL5-23">
          <mxGeometry width="50" height="50" relative="1" as="geometry">
            <mxPoint x="440" y="1623" as="sourcePoint" />
            <mxPoint x="490" y="1573" as="targetPoint" />
          </mxGeometry>
        </mxCell>
      </root>
    </mxGraphModel>
  </diagram>
</mxfile>
